<svg xmlns="http://www.w3.org/2000/svg" viewBox="0 0 512 512">
  <rect width="512" height="512" rx="96" fill="#1a1a2e"/>
  <g transform="translate(56, 96)">
    <!-- White keys -->
    <rect x="0" y="0" width="52" height="320" rx="4" fill="#f8f8f8" stroke="#333" stroke-width="2"/>
    <rect x="58" y="0" width="52" height="320" rx="4" fill="#f8f8f8" stroke="#333" stroke-width="2"/>
    <rect x="116" y="0" width="52" height="320" rx="4" fill="#f8f8f8" stroke="#333" stroke-width="2"/>
    <rect x="174" y="0" width="52" height="320" rx="4" fill="#f8f8f8" stroke="#333" stroke-width="2"/>
    <rect x="232" y="0" width="52" height="320" rx="4" fill="#f8f8f8" stroke="#333" stroke-width="2"/>
    <rect x="290" y="0" width="52" height="320" rx="4" fill="#f8f8f8" stroke="#333" stroke-width="2"/>
    <rect x="348" y="0" width="52" height="320" rx="4" fill="#f8f8f8" stroke="#333" stroke-width="2"/>
    <!-- Black keys -->
    <rect x="36" y="0" width="32" height="200" rx="3" fill="#222"/>
    <rect x="94" y="0" width="32" height="200" rx="3" fill="#222"/>
    <rect x="210" y="0" width="32" height="200" rx="3" fill="#222"/>
    <rect x="268" y="0" width="32" height="200" rx="3" fill="#222"/>
    <rect x="326" y="0" width="32" height="200" rx="3" fill="#222"/>
  </g>
  <!-- Musical note -->
  <ellipse cx="390" cy="140" rx="28" ry="22" fill="#8f8" transform="rotate(-15, 390, 140)"/>
  <rect x="414" y="60" width="6" height="85" fill="#8f8"/>
</svg>
